<svg id="_4555726261582885793" data-name="4555726261582885793" xmlns="http://www.w3.org/2000/svg" width="47.595" height="55.93" viewBox="0 0 47.595 55.93">
  <path id="Path_193" data-name="Path 193" d="M51.763,25.946h7.073a7.923,7.923,0,1,1,0,15.845H52.067L47.446,46a.928.928,0,0,1-1.552-.686V41.791H44.768a.928.928,0,0,1-.927-.927v-7A7.932,7.932,0,0,1,51.763,25.946Zm9.587,9.413a1.529,1.529,0,1,0-1.529-1.529,1.529,1.529,0,0,0,1.529,1.529Zm-6.051,0a1.529,1.529,0,1,0-1.082-.448,1.529,1.529,0,0,0,1.082.448Zm-6.052,0a1.529,1.529,0,1,0-1.529-1.529,1.529,1.529,0,0,0,1.529,1.529Z" transform="translate(-33.833 -15.033)" fill="#fff"/>
  <path id="Path_194" data-name="Path 194" d="M42.01,57.658a2.371,2.371,0,0,0,2.363-2.2c.063-.9.138-2.042.212-3.166.06-.921.129-1.961.185-2.778l1.722,0c.2,0,.418.007.639.013,1.427.04,3.381.094,4.838-1.24a5.113,5.113,0,0,0,1.508-3.318c.054-.363.918-6.056,1.465-9.664l.044-.019c.344-.148.688-.3,1.029-.457a12.068,12.068,0,0,0,1.361-.716,2.607,2.607,0,0,0,1.352-3.237,4.905,4.905,0,0,0-.891-1.573c-.216-.264-.734-.772-2.091-2.077-.378-.363-.722-.694-.933-.9A4.342,4.342,0,0,1,53.6,24.662c.006-.932.006-1.526.006-1.627a21.153,21.153,0,1,0-40.513,8.359A36.258,36.258,0,0,1,16.179,45.8v4.139a3.212,3.212,0,0,0,2.578,3.138l22.788,4.533a2.331,2.331,0,0,0,.465.046Zm.18-3.289H42.2Zm1.057-8.17h-1.26l-.333,1.215a38.921,38.921,0,0,0-.366,4.656c-.047.712-.094,1.432-.139,2.092L19.484,49.853V45.8a39.546,39.546,0,0,0-3.355-15.719A17.815,17.815,0,0,1,32.2,5.227h0A17.8,17.8,0,0,1,50.3,23.035c0,.105,0,.756-.007,1.771v.135l.021.133a6.685,6.685,0,0,0,2.177,3.6c.218.215.573.556.962.93.614.591,1.643,1.579,1.825,1.788l.061.078c-.245.135-.495.253-.718.356-.323.152-.634.285-.945.42l-.189.081c-.033.015-.069.028-.107.042a3.2,3.2,0,0,0-.885.468l-.142.112-.49.6L51.8,34c-.476,3.134-1.583,10.434-1.6,10.531l-.005.045a2.077,2.077,0,0,1-.456,1.271,4.14,4.14,0,0,1-2.515.376c-.249-.007-.493-.014-.727-.014-1.017,0-2.027,0-3.04-.007Z" transform="translate(-11.285 -1.728)" fill="#fff"/>
</svg>
