<svg xmlns="http://www.w3.org/2000/svg" width="33.44" height="176.84" viewBox="0 0 33.44 176.84">
  <g id="_2" data-name="2" transform="translate(0.01)">
    <circle id="Ellipse_3" data-name="Ellipse 3" cx="2.22" cy="2.22" r="2.22" transform="translate(0 0)"/>
    <circle id="Ellipse_4" data-name="Ellipse 4" cx="2.22" cy="2.22" r="2.22" transform="translate(28.98 0)"/>
    <circle id="Ellipse_5" data-name="Ellipse 5" cx="2.22" cy="2.22" r="2.22" transform="translate(0 28.73)"/>
    <circle id="Ellipse_6" data-name="Ellipse 6" cx="2.22" cy="2.22" r="2.22" transform="translate(28.98 28.73)"/>
    <path id="Path_1" data-name="Path 1" d="M714.45,362a2.23,2.23,0,1,1-2.23-2.22,2.23,2.23,0,0,1,2.23,2.22Z" transform="translate(-710 -302.3)"/>
    <path id="Path_2" data-name="Path 2" d="M743.43,362a2.23,2.23,0,1,1-2.22-2.22,2.23,2.23,0,0,1,2.22,2.22Z" transform="translate(-710 -302.3)"/>
    <path id="Path_3" data-name="Path 3" d="M714.45,390.71a2.23,2.23,0,1,1-2.23-2.22,2.23,2.23,0,0,1,2.23,2.22Z" transform="translate(-710 -302.3)"/>
    <path id="Path_4" data-name="Path 4" d="M743.43,390.71a2.23,2.23,0,1,1-2.22-2.22,2.23,2.23,0,0,1,2.22,2.22Z" transform="translate(-710 -302.3)"/>
    <circle id="Ellipse_7" data-name="Ellipse 7" cx="2.22" cy="2.22" r="2.22" transform="translate(0 114.92)"/>
    <circle id="Ellipse_8" data-name="Ellipse 8" cx="2.22" cy="2.22" r="2.22" transform="translate(28.98 114.92)"/>
    <circle id="Ellipse_9" data-name="Ellipse 9" cx="2.22" cy="2.22" r="2.22" transform="translate(0 143.65)"/>
    <circle id="Ellipse_10" data-name="Ellipse 10" cx="2.22" cy="2.22" r="2.22" transform="translate(28.98 143.65)"/>
    <path id="Path_5" data-name="Path 5" d="M714.45,476.91a2.23,2.23,0,1,1-2.23-2.23,2.23,2.23,0,0,1,2.23,2.23Z" transform="translate(-710 -302.3)"/>
    <path id="Path_6" data-name="Path 6" d="M743.43,476.91a2.23,2.23,0,1,1-2.22-2.23,2.23,2.23,0,0,1,2.22,2.23Z" transform="translate(-710 -302.3)"/>
  </g>
</svg>
