<svg xmlns="http://www.w3.org/2000/svg" width="139.129" height="131.66" viewBox="0 0 139.129 131.66">
  <g id="_61" data-name="61" transform="translate(0.059)">
    <path id="Path_419" data-name="Path 419" d="M520.23,422.72a2.95,2.95,0,1,1-.843-2.115,2.95,2.95,0,0,1,.843,2.115Z" transform="translate(-513.75 -294.6)" fill="none" stroke="#939393" stroke-linecap="round" stroke-linejoin="round" stroke-width="1.18"/>
    <circle id="Ellipse_62" data-name="Ellipse 62" cx="2.95" cy="2.95" r="2.95" transform="translate(19.44 125.17)" fill="none" stroke="#939393" stroke-linecap="round" stroke-linejoin="round" stroke-width="1.18"/>
    <circle id="Ellipse_63" data-name="Ellipse 63" cx="2.95" cy="2.95" r="2.95" transform="translate(38.3 125.17)" fill="none" stroke="#939393" stroke-linecap="round" stroke-linejoin="round" stroke-width="1.18"/>
    <circle id="Ellipse_64" data-name="Ellipse 64" cx="2.95" cy="2.95" r="2.95" transform="translate(57.16 125.17)" fill="none" stroke="#939393" stroke-linecap="round" stroke-linejoin="round" stroke-width="1.18"/>
    <circle id="Ellipse_65" data-name="Ellipse 65" cx="2.95" cy="2.95" r="2.95" transform="translate(76.01 125.17)" fill="none" stroke="#939393" stroke-linecap="round" stroke-linejoin="round" stroke-width="1.18"/>
    <circle id="Ellipse_66" data-name="Ellipse 66" cx="2.95" cy="2.95" r="2.95" transform="translate(94.87 125.17)" fill="none" stroke="#939393" stroke-linecap="round" stroke-linejoin="round" stroke-width="1.18"/>
    <circle id="Ellipse_67" data-name="Ellipse 67" cx="2.95" cy="2.95" r="2.95" transform="translate(113.73 125.17)" fill="none" stroke="#939393" stroke-linecap="round" stroke-linejoin="round" stroke-width="1.18"/>
    <path id="Path_420" data-name="Path 420" d="M652.23,422.72a2.95,2.95,0,1,1-.843-2.115,2.95,2.95,0,0,1,.843,2.115Z" transform="translate(-513.75 -294.6)" fill="none" stroke="#939393" stroke-linecap="round" stroke-linejoin="round" stroke-width="1.18"/>
    <path id="Path_421" data-name="Path 421" d="M520.23,404.92a2.95,2.95,0,1,1-2.94-2.94,2.95,2.95,0,0,1,2.94,2.94Z" transform="translate(-513.75 -294.6)" fill="none" stroke="#939393" stroke-linecap="round" stroke-linejoin="round" stroke-width="1.18"/>
    <circle id="Ellipse_68" data-name="Ellipse 68" cx="2.95" cy="2.95" r="2.95" transform="translate(19.44 107.37)" fill="none" stroke="#939393" stroke-linecap="round" stroke-linejoin="round" stroke-width="1.18"/>
    <circle id="Ellipse_69" data-name="Ellipse 69" cx="2.95" cy="2.95" r="2.95" transform="translate(38.3 107.37)" fill="none" stroke="#939393" stroke-linecap="round" stroke-linejoin="round" stroke-width="1.18"/>
    <circle id="Ellipse_70" data-name="Ellipse 70" cx="2.95" cy="2.95" r="2.95" transform="translate(57.16 107.37)" fill="none" stroke="#939393" stroke-linecap="round" stroke-linejoin="round" stroke-width="1.18"/>
    <circle id="Ellipse_71" data-name="Ellipse 71" cx="2.95" cy="2.95" r="2.95" transform="translate(76.01 107.37)" fill="none" stroke="#939393" stroke-linecap="round" stroke-linejoin="round" stroke-width="1.18"/>
    <circle id="Ellipse_72" data-name="Ellipse 72" cx="2.95" cy="2.95" r="2.95" transform="translate(94.87 107.37)" fill="none" stroke="#939393" stroke-linecap="round" stroke-linejoin="round" stroke-width="1.18"/>
    <circle id="Ellipse_73" data-name="Ellipse 73" cx="2.95" cy="2.95" r="2.95" transform="translate(113.73 107.37)" fill="none" stroke="#939393" stroke-linecap="round" stroke-linejoin="round" stroke-width="1.18"/>
    <path id="Path_422" data-name="Path 422" d="M652.23,404.92a2.95,2.95,0,1,1-2.94-2.94,2.95,2.95,0,0,1,2.94,2.94Z" transform="translate(-513.75 -294.6)" fill="none" stroke="#939393" stroke-linecap="round" stroke-linejoin="round" stroke-width="1.18"/>
    <path id="Path_423" data-name="Path 423" d="M520.23,387.12a2.95,2.95,0,1,1-2.94-2.94,2.95,2.95,0,0,1,2.94,2.94Z" transform="translate(-513.75 -294.6)" fill="none" stroke="#939393" stroke-linecap="round" stroke-linejoin="round" stroke-width="1.18"/>
    <circle id="Ellipse_74" data-name="Ellipse 74" cx="2.95" cy="2.95" r="2.95" transform="translate(19.44 89.57)" fill="none" stroke="#939393" stroke-linecap="round" stroke-linejoin="round" stroke-width="1.18"/>
    <circle id="Ellipse_75" data-name="Ellipse 75" cx="2.95" cy="2.95" r="2.95" transform="translate(38.3 89.57)" fill="none" stroke="#939393" stroke-linecap="round" stroke-linejoin="round" stroke-width="1.18"/>
    <circle id="Ellipse_76" data-name="Ellipse 76" cx="2.95" cy="2.95" r="2.95" transform="translate(57.16 89.57)" fill="none" stroke="#939393" stroke-linecap="round" stroke-linejoin="round" stroke-width="1.18"/>
    <circle id="Ellipse_77" data-name="Ellipse 77" cx="2.95" cy="2.95" r="2.95" transform="translate(76.01 89.57)" fill="none" stroke="#939393" stroke-linecap="round" stroke-linejoin="round" stroke-width="1.18"/>
    <circle id="Ellipse_78" data-name="Ellipse 78" cx="2.95" cy="2.95" r="2.95" transform="translate(94.87 89.57)" fill="none" stroke="#939393" stroke-linecap="round" stroke-linejoin="round" stroke-width="1.18"/>
    <circle id="Ellipse_79" data-name="Ellipse 79" cx="2.95" cy="2.95" r="2.95" transform="translate(113.73 89.57)" fill="none" stroke="#939393" stroke-linecap="round" stroke-linejoin="round" stroke-width="1.18"/>
    <path id="Path_424" data-name="Path 424" d="M652.23,387.12a2.95,2.95,0,1,1-2.94-2.94,2.95,2.95,0,0,1,2.94,2.94Z" transform="translate(-513.75 -294.6)" fill="none" stroke="#939393" stroke-linecap="round" stroke-linejoin="round" stroke-width="1.18"/>
    <path id="Path_425" data-name="Path 425" d="M520.23,369.33a2.94,2.94,0,1,1-.858-2.085A2.95,2.95,0,0,1,520.23,369.33Z" transform="translate(-513.75 -294.6)" fill="none" stroke="#939393" stroke-linecap="round" stroke-linejoin="round" stroke-width="1.18"/>
    <path id="Path_426" data-name="Path 426" d="M539.09,369.33a2.95,2.95,0,1,1-.882-2.1,2.95,2.95,0,0,1,.882,2.1Z" transform="translate(-513.75 -294.6)" fill="none" stroke="#939393" stroke-linecap="round" stroke-linejoin="round" stroke-width="1.18"/>
    <path id="Path_427" data-name="Path 427" d="M558,369.33a3,3,0,1,1-3-2.95,2.95,2.95,0,0,1,3,2.95Z" transform="translate(-513.75 -294.6)" fill="none" stroke="#939393" stroke-linecap="round" stroke-linejoin="round" stroke-width="1.18"/>
    <path id="Path_428" data-name="Path 428" d="M576.8,369.33a2.94,2.94,0,1,1-.858-2.085A2.95,2.95,0,0,1,576.8,369.33Z" transform="translate(-513.75 -294.6)" fill="none" stroke="#939393" stroke-linecap="round" stroke-linejoin="round" stroke-width="1.18"/>
    <path id="Path_429" data-name="Path 429" d="M595.66,369.33a2.95,2.95,0,1,1-2.95-2.95,2.95,2.95,0,0,1,2.95,2.95Z" transform="translate(-513.75 -294.6)" fill="none" stroke="#939393" stroke-linecap="round" stroke-linejoin="round" stroke-width="1.18"/>
    <path id="Path_430" data-name="Path 430" d="M614.52,369.33a3,3,0,1,1-2.95-2.95,2.95,2.95,0,0,1,2.95,2.95Z" transform="translate(-513.75 -294.6)" fill="none" stroke="#939393" stroke-linecap="round" stroke-linejoin="round" stroke-width="1.18"/>
    <path id="Path_431" data-name="Path 431" d="M633.37,369.33a2.94,2.94,0,1,1-.858-2.085A2.95,2.95,0,0,1,633.37,369.33Z" transform="translate(-513.75 -294.6)" fill="none" stroke="#939393" stroke-linecap="round" stroke-linejoin="round" stroke-width="1.18"/>
    <path id="Path_432" data-name="Path 432" d="M652.23,369.33a2.94,2.94,0,1,1-.858-2.085A2.95,2.95,0,0,1,652.23,369.33Z" transform="translate(-513.75 -294.6)" fill="none" stroke="#939393" stroke-linecap="round" stroke-linejoin="round" stroke-width="1.18"/>
    <path id="Path_433" data-name="Path 433" d="M520.23,351.53a2.95,2.95,0,1,1-2.94-2.95,2.95,2.95,0,0,1,2.94,2.95Z" transform="translate(-513.75 -294.6)" fill="none" stroke="#939393" stroke-linecap="round" stroke-linejoin="round" stroke-width="1.18"/>
    <path id="Path_434" data-name="Path 434" d="M539.09,351.53a2.95,2.95,0,1,1-.882-2.1,2.95,2.95,0,0,1,.882,2.1Z" transform="translate(-513.75 -294.6)" fill="none" stroke="#939393" stroke-linecap="round" stroke-linejoin="round" stroke-width="1.18"/>
    <path id="Path_435" data-name="Path 435" d="M558,351.53a3,3,0,1,1-3-2.95,2.95,2.95,0,0,1,3,2.95Z" transform="translate(-513.75 -294.6)" fill="none" stroke="#939393" stroke-linecap="round" stroke-linejoin="round" stroke-width="1.18"/>
    <path id="Path_436" data-name="Path 436" d="M576.8,351.53a2.95,2.95,0,1,1-2.94-2.95A2.95,2.95,0,0,1,576.8,351.53Z" transform="translate(-513.75 -294.6)" fill="none" stroke="#939393" stroke-linecap="round" stroke-linejoin="round" stroke-width="1.18"/>
    <path id="Path_437" data-name="Path 437" d="M595.66,351.53a2.95,2.95,0,1,1-2.95-2.95,2.95,2.95,0,0,1,2.95,2.95Z" transform="translate(-513.75 -294.6)" fill="none" stroke="#939393" stroke-linecap="round" stroke-linejoin="round" stroke-width="1.18"/>
    <path id="Path_438" data-name="Path 438" d="M614.52,351.53a3,3,0,1,1-2.95-2.95,2.95,2.95,0,0,1,2.95,2.95Z" transform="translate(-513.75 -294.6)" fill="none" stroke="#939393" stroke-linecap="round" stroke-linejoin="round" stroke-width="1.18"/>
    <path id="Path_439" data-name="Path 439" d="M633.37,351.53a2.94,2.94,0,1,1-.858-2.085A2.95,2.95,0,0,1,633.37,351.53Z" transform="translate(-513.75 -294.6)" fill="none" stroke="#939393" stroke-linecap="round" stroke-linejoin="round" stroke-width="1.18"/>
    <path id="Path_440" data-name="Path 440" d="M652.23,351.53a2.95,2.95,0,1,1-2.94-2.95A2.95,2.95,0,0,1,652.23,351.53Z" transform="translate(-513.75 -294.6)" fill="none" stroke="#939393" stroke-linecap="round" stroke-linejoin="round" stroke-width="1.18"/>
    <path id="Path_441" data-name="Path 441" d="M520.23,333.73a2.95,2.95,0,1,1-2.94-2.94,2.95,2.95,0,0,1,2.94,2.94Z" transform="translate(-513.75 -294.6)" fill="none" stroke="#939393" stroke-linecap="round" stroke-linejoin="round" stroke-width="1.18"/>
    <path id="Path_442" data-name="Path 442" d="M539.09,333.73a2.95,2.95,0,1,1-.885-2.1,2.95,2.95,0,0,1,.885,2.1Z" transform="translate(-513.75 -294.6)" fill="none" stroke="#939393" stroke-linecap="round" stroke-linejoin="round" stroke-width="1.18"/>
    <path id="Path_443" data-name="Path 443" d="M558,333.73a3,3,0,1,1-3-2.94,2.95,2.95,0,0,1,3,2.94Z" transform="translate(-513.75 -294.6)" fill="none" stroke="#939393" stroke-linecap="round" stroke-linejoin="round" stroke-width="1.18"/>
    <path id="Path_444" data-name="Path 444" d="M576.8,333.73a2.95,2.95,0,1,1-2.94-2.94A2.95,2.95,0,0,1,576.8,333.73Z" transform="translate(-513.75 -294.6)" fill="none" stroke="#939393" stroke-linecap="round" stroke-linejoin="round" stroke-width="1.18"/>
    <path id="Path_445" data-name="Path 445" d="M595.66,333.73a2.95,2.95,0,1,1-2.95-2.94,2.95,2.95,0,0,1,2.95,2.94Z" transform="translate(-513.75 -294.6)" fill="none" stroke="#939393" stroke-linecap="round" stroke-linejoin="round" stroke-width="1.18"/>
    <path id="Path_446" data-name="Path 446" d="M614.52,333.73a3,3,0,1,1-2.95-2.94,2.95,2.95,0,0,1,2.95,2.94Z" transform="translate(-513.75 -294.6)" fill="none" stroke="#939393" stroke-linecap="round" stroke-linejoin="round" stroke-width="1.18"/>
    <path id="Path_447" data-name="Path 447" d="M633.37,333.73a2.95,2.95,0,1,1-2.94-2.94,2.95,2.95,0,0,1,2.94,2.94Z" transform="translate(-513.75 -294.6)" fill="none" stroke="#939393" stroke-linecap="round" stroke-linejoin="round" stroke-width="1.18"/>
    <path id="Path_448" data-name="Path 448" d="M652.23,333.73a2.95,2.95,0,1,1-2.94-2.94A2.95,2.95,0,0,1,652.23,333.73Z" transform="translate(-513.75 -294.6)" fill="none" stroke="#939393" stroke-linecap="round" stroke-linejoin="round" stroke-width="1.18"/>
    <path id="Path_449" data-name="Path 449" d="M520.23,315.93a2.95,2.95,0,1,1-2.94-2.94,2.95,2.95,0,0,1,2.94,2.94Z" transform="translate(-513.75 -294.6)" fill="none" stroke="#939393" stroke-linecap="round" stroke-linejoin="round" stroke-width="1.18"/>
    <circle id="Ellipse_80" data-name="Ellipse 80" cx="2.95" cy="2.95" r="2.95" transform="translate(19.44 18.38)" fill="none" stroke="#939393" stroke-linecap="round" stroke-linejoin="round" stroke-width="1.18"/>
    <circle id="Ellipse_81" data-name="Ellipse 81" cx="2.95" cy="2.95" r="2.95" transform="translate(38.3 18.38)" fill="none" stroke="#939393" stroke-linecap="round" stroke-linejoin="round" stroke-width="1.18"/>
    <circle id="Ellipse_82" data-name="Ellipse 82" cx="2.95" cy="2.95" r="2.95" transform="translate(57.16 18.38)" fill="none" stroke="#939393" stroke-linecap="round" stroke-linejoin="round" stroke-width="1.18"/>
    <circle id="Ellipse_83" data-name="Ellipse 83" cx="2.95" cy="2.95" r="2.95" transform="translate(76.01 18.38)" fill="none" stroke="#939393" stroke-linecap="round" stroke-linejoin="round" stroke-width="1.18"/>
    <circle id="Ellipse_84" data-name="Ellipse 84" cx="2.95" cy="2.95" r="2.95" transform="translate(94.87 18.38)" fill="none" stroke="#939393" stroke-linecap="round" stroke-linejoin="round" stroke-width="1.18"/>
    <circle id="Ellipse_85" data-name="Ellipse 85" cx="2.95" cy="2.95" r="2.95" transform="translate(113.73 18.38)" fill="none" stroke="#939393" stroke-linecap="round" stroke-linejoin="round" stroke-width="1.18"/>
    <path id="Path_450" data-name="Path 450" d="M652.23,315.93a2.95,2.95,0,1,1-2.94-2.94A2.95,2.95,0,0,1,652.23,315.93Z" transform="translate(-513.75 -294.6)" fill="none" stroke="#939393" stroke-linecap="round" stroke-linejoin="round" stroke-width="1.18"/>
    <path id="Path_451" data-name="Path 451" d="M520.23,298.14a2.94,2.94,0,1,1-.858-2.085A2.95,2.95,0,0,1,520.23,298.14Z" transform="translate(-513.75 -294.6)" fill="none" stroke="#939393" stroke-linecap="round" stroke-linejoin="round" stroke-width="1.18"/>
    <circle id="Ellipse_86" data-name="Ellipse 86" cx="2.95" cy="2.95" r="2.95" transform="translate(19.44 0.59)" fill="none" stroke="#939393" stroke-linecap="round" stroke-linejoin="round" stroke-width="1.18"/>
    <circle id="Ellipse_87" data-name="Ellipse 87" cx="2.95" cy="2.95" r="2.95" transform="translate(38.3 0.59)" fill="none" stroke="#939393" stroke-linecap="round" stroke-linejoin="round" stroke-width="1.18"/>
    <circle id="Ellipse_88" data-name="Ellipse 88" cx="2.95" cy="2.95" r="2.95" transform="translate(57.16 0.59)" fill="none" stroke="#939393" stroke-linecap="round" stroke-linejoin="round" stroke-width="1.18"/>
    <circle id="Ellipse_89" data-name="Ellipse 89" cx="2.95" cy="2.95" r="2.95" transform="translate(76.01 0.59)" fill="none" stroke="#939393" stroke-linecap="round" stroke-linejoin="round" stroke-width="1.18"/>
    <circle id="Ellipse_90" data-name="Ellipse 90" cx="2.95" cy="2.95" r="2.95" transform="translate(94.87 0.59)" fill="none" stroke="#939393" stroke-linecap="round" stroke-linejoin="round" stroke-width="1.18"/>
    <circle id="Ellipse_91" data-name="Ellipse 91" cx="2.95" cy="2.95" r="2.95" transform="translate(113.73 0.59)" fill="none" stroke="#939393" stroke-linecap="round" stroke-linejoin="round" stroke-width="1.18"/>
    <path id="Path_452" data-name="Path 452" d="M652.23,298.14a2.94,2.94,0,1,1-.858-2.085A2.95,2.95,0,0,1,652.23,298.14Z" transform="translate(-513.75 -294.6)" fill="none" stroke="#939393" stroke-linecap="round" stroke-linejoin="round" stroke-width="1.18"/>
  </g>
</svg>
