<svg id="bootstrap-logo-vector" xmlns="http://www.w3.org/2000/svg" width="106" height="106" viewBox="0 0 106 106">
  <path id="Path_362" data-name="Path 362" d="M0,92.332A13.667,13.667,0,0,0,13.668,106H92.332A13.668,13.668,0,0,0,106,92.332V13.668A13.668,13.668,0,0,0,92.332,0H13.668A13.668,13.668,0,0,0,0,13.668V92.332Z" fill="#563d7c"/>
  <path id="Path_363" data-name="Path 363" d="M86.187,76.477V61.466H99.4a20.553,20.553,0,0,1,3.64.315,9.086,9.086,0,0,1,3.1,1.123,5.992,5.992,0,0,1,2.157,2.247,7.463,7.463,0,0,1,.809,3.685q0,4.045-2.427,5.843a10.144,10.144,0,0,1-6.2,1.8ZM72.075,50.5v64.18h31.1a32.813,32.813,0,0,0,8.4-1.079,22.478,22.478,0,0,0,7.281-3.326,16.382,16.382,0,0,0,5.078-5.8,17.66,17.66,0,0,0,1.888-8.4,17.784,17.784,0,0,0-2.921-10.292,15.426,15.426,0,0,0-8.854-5.978,16,16,0,0,0,6.517-5.3,14.059,14.059,0,0,0,2.2-8.09,17.215,17.215,0,0,0-1.483-7.55,12.334,12.334,0,0,0-4.18-4.9,18.04,18.04,0,0,0-6.472-2.652,39.955,39.955,0,0,0-8.36-.809Zm14.112,53.213V86.1h15.37a11.891,11.891,0,0,1,7.371,2.113q2.786,2.112,2.787,7.056a8.821,8.821,0,0,1-.854,4.135,6.783,6.783,0,0,1-2.292,2.562,9.707,9.707,0,0,1-3.326,1.349,18.87,18.87,0,0,1-3.955.4Z" transform="translate(-42.231 -29.59)" fill="#fff"/>
</svg>
