<svg xmlns="http://www.w3.org/2000/svg" width="86.381" height="84.691" viewBox="0 0 86.381 84.691">
  <g id="Untitled-3" transform="translate(0)">
    <path id="Path_116" data-name="Path 116" d="M692.01,484.535a1.285,1.285,0,1,1-1.285-1.285A1.285,1.285,0,0,1,692.01,484.535Z" transform="translate(-689.44 -428.906)" fill="#101011"/>
    <path id="Path_117" data-name="Path 117" d="M697.9,484.535a1.285,1.285,0,1,1-1.285-1.285A1.285,1.285,0,0,1,697.9,484.535Z" transform="translate(-687.104 -428.906)" fill="#101011"/>
    <path id="Path_118" data-name="Path 118" d="M703.79,484.535a1.285,1.285,0,1,1-1.285-1.285A1.285,1.285,0,0,1,703.79,484.535Z" transform="translate(-684.767 -428.906)" fill="#101011"/>
    <path id="Path_119" data-name="Path 119" d="M709.73,484.535a1.285,1.285,0,1,1-1.285-1.285A1.285,1.285,0,0,1,709.73,484.535Z" transform="translate(-682.411 -428.906)" fill="#101011"/>
    <path id="Path_120" data-name="Path 120" d="M715.57,484.535a1.285,1.285,0,1,1-1.285-1.285,1.285,1.285,0,0,1,1.285,1.285Z" transform="translate(-680.095 -428.906)" fill="#101011"/>
    <path id="Path_121" data-name="Path 121" d="M721.46,484.535a1.285,1.285,0,1,1-1.285-1.285A1.285,1.285,0,0,1,721.46,484.535Z" transform="translate(-677.758 -428.906)" fill="#101011"/>
    <path id="Path_122" data-name="Path 122" d="M727.35,484.535a1.285,1.285,0,1,1-1.285-1.285A1.285,1.285,0,0,1,727.35,484.535Z" transform="translate(-675.422 -428.906)" fill="#101011"/>
    <path id="Path_123" data-name="Path 123" d="M733.24,484.535a1.285,1.285,0,1,1-1.285-1.285A1.285,1.285,0,0,1,733.24,484.535Z" transform="translate(-673.086 -428.906)" fill="#101011"/>
    <path id="Path_124" data-name="Path 124" d="M692.01,478.975a1.285,1.285,0,1,1-1.285-1.285,1.285,1.285,0,0,1,1.285,1.285Z" transform="translate(-689.44 -431.111)" fill="#101011"/>
    <path id="Path_125" data-name="Path 125" d="M697.9,478.975a1.285,1.285,0,1,1-1.285-1.285,1.285,1.285,0,0,1,1.285,1.285Z" transform="translate(-687.104 -431.111)" fill="#101011"/>
    <path id="Path_126" data-name="Path 126" d="M703.79,478.975a1.285,1.285,0,1,1-1.285-1.285,1.285,1.285,0,0,1,1.285,1.285Z" transform="translate(-684.767 -431.111)" fill="#101011"/>
    <path id="Path_127" data-name="Path 127" d="M709.73,478.975a1.285,1.285,0,1,1-1.285-1.285,1.285,1.285,0,0,1,1.285,1.285Z" transform="translate(-682.411 -431.111)" fill="#101011"/>
    <path id="Path_128" data-name="Path 128" d="M715.57,478.975a1.285,1.285,0,1,1-1.285-1.285,1.285,1.285,0,0,1,1.285,1.285Z" transform="translate(-680.095 -431.111)" fill="#101011"/>
    <path id="Path_129" data-name="Path 129" d="M721.46,478.975a1.285,1.285,0,1,1-1.285-1.285,1.285,1.285,0,0,1,1.285,1.285Z" transform="translate(-677.758 -431.111)" fill="#101011"/>
    <path id="Path_130" data-name="Path 130" d="M727.35,478.975a1.285,1.285,0,1,1-1.285-1.285,1.285,1.285,0,0,1,1.285,1.285Z" transform="translate(-675.422 -431.111)" fill="#101011"/>
    <path id="Path_131" data-name="Path 131" d="M733.24,478.975a1.285,1.285,0,1,1-1.285-1.285,1.285,1.285,0,0,1,1.285,1.285Z" transform="translate(-673.086 -431.111)" fill="#101011"/>
    <path id="Path_132" data-name="Path 132" d="M692.01,473.415a1.285,1.285,0,1,1-1.285-1.285A1.285,1.285,0,0,1,692.01,473.415Z" transform="translate(-689.44 -433.317)" fill="#101011"/>
    <path id="Path_133" data-name="Path 133" d="M697.9,473.415a1.285,1.285,0,1,1-1.285-1.285A1.285,1.285,0,0,1,697.9,473.415Z" transform="translate(-687.104 -433.317)" fill="#101011"/>
    <path id="Path_134" data-name="Path 134" d="M703.79,473.415a1.285,1.285,0,1,1-1.285-1.285A1.285,1.285,0,0,1,703.79,473.415Z" transform="translate(-684.767 -433.317)" fill="#101011"/>
    <path id="Path_135" data-name="Path 135" d="M709.73,473.415a1.285,1.285,0,1,1-1.285-1.285,1.285,1.285,0,0,1,1.285,1.285Z" transform="translate(-682.411 -433.317)" fill="#101011"/>
    <path id="Path_136" data-name="Path 136" d="M715.57,473.415a1.285,1.285,0,1,1-1.285-1.285,1.285,1.285,0,0,1,1.285,1.285Z" transform="translate(-680.095 -433.317)" fill="#101011"/>
    <path id="Path_137" data-name="Path 137" d="M721.46,473.415a1.285,1.285,0,1,1-1.285-1.285A1.285,1.285,0,0,1,721.46,473.415Z" transform="translate(-677.758 -433.317)" fill="#101011"/>
    <path id="Path_138" data-name="Path 138" d="M727.35,473.415a1.285,1.285,0,1,1-1.285-1.285A1.285,1.285,0,0,1,727.35,473.415Z" transform="translate(-675.422 -433.317)" fill="#101011"/>
    <path id="Path_139" data-name="Path 139" d="M733.24,473.415a1.285,1.285,0,1,1-1.285-1.285A1.285,1.285,0,0,1,733.24,473.415Z" transform="translate(-673.086 -433.317)" fill="#101011"/>
    <path id="Path_140" data-name="Path 140" d="M692.01,467.855a1.285,1.285,0,1,1-1.285-1.285A1.285,1.285,0,0,1,692.01,467.855Z" transform="translate(-689.44 -435.522)" fill="#101011"/>
    <path id="Path_141" data-name="Path 141" d="M697.9,467.855a1.285,1.285,0,1,1-1.285-1.285A1.285,1.285,0,0,1,697.9,467.855Z" transform="translate(-687.104 -435.522)" fill="#101011"/>
    <path id="Path_142" data-name="Path 142" d="M703.79,467.855a1.285,1.285,0,1,1-1.285-1.285A1.285,1.285,0,0,1,703.79,467.855Z" transform="translate(-684.767 -435.522)" fill="#101011"/>
    <path id="Path_143" data-name="Path 143" d="M709.73,467.855a1.285,1.285,0,1,1-1.285-1.285,1.285,1.285,0,0,1,1.285,1.285Z" transform="translate(-682.411 -435.522)" fill="#101011"/>
    <path id="Path_144" data-name="Path 144" d="M715.57,467.855a1.285,1.285,0,1,1-1.285-1.285,1.285,1.285,0,0,1,1.285,1.285Z" transform="translate(-680.095 -435.522)" fill="#101011"/>
    <path id="Path_145" data-name="Path 145" d="M721.46,467.855a1.285,1.285,0,1,1-1.285-1.285A1.285,1.285,0,0,1,721.46,467.855Z" transform="translate(-677.758 -435.522)" fill="#101011"/>
    <path id="Path_146" data-name="Path 146" d="M727.35,467.855a1.285,1.285,0,1,1-1.285-1.285A1.285,1.285,0,0,1,727.35,467.855Z" transform="translate(-675.422 -435.522)" fill="#101011"/>
    <path id="Path_147" data-name="Path 147" d="M733.24,467.855a1.285,1.285,0,1,1-1.285-1.285A1.285,1.285,0,0,1,733.24,467.855Z" transform="translate(-673.086 -435.522)" fill="#101011"/>
    <path id="Path_148" data-name="Path 148" d="M692.01,462.295a1.285,1.285,0,1,1-1.285-1.285,1.3,1.3,0,0,1,1.285,1.285Z" transform="translate(-689.44 -437.728)" fill="#101011"/>
    <path id="Path_149" data-name="Path 149" d="M697.9,462.295a1.285,1.285,0,1,1-1.285-1.285,1.3,1.3,0,0,1,1.285,1.285Z" transform="translate(-687.104 -437.728)" fill="#101011"/>
    <path id="Path_150" data-name="Path 150" d="M703.79,462.295a1.285,1.285,0,1,1-1.285-1.285,1.3,1.3,0,0,1,1.285,1.285Z" transform="translate(-684.767 -437.728)" fill="#101011"/>
    <path id="Path_151" data-name="Path 151" d="M709.73,462.3a1.285,1.285,0,1,1-1.4-1.3,1.3,1.3,0,0,1,1.4,1.3Z" transform="translate(-682.411 -437.733)" fill="#101011"/>
    <path id="Path_152" data-name="Path 152" d="M715.57,462.295a1.285,1.285,0,1,1-1.285-1.285,1.3,1.3,0,0,1,1.285,1.285Z" transform="translate(-680.095 -437.728)" fill="#101011"/>
    <path id="Path_153" data-name="Path 153" d="M721.46,462.295a1.285,1.285,0,1,1-1.285-1.285,1.3,1.3,0,0,1,1.285,1.285Z" transform="translate(-677.758 -437.728)" fill="#101011"/>
    <path id="Path_154" data-name="Path 154" d="M727.35,462.295a1.285,1.285,0,1,1-1.285-1.285,1.3,1.3,0,0,1,1.285,1.285Z" transform="translate(-675.422 -437.728)" fill="#101011"/>
    <path id="Path_155" data-name="Path 155" d="M733.24,462.295a1.285,1.285,0,1,1-1.285-1.285,1.3,1.3,0,0,1,1.285,1.285Z" transform="translate(-673.086 -437.728)" fill="#101011"/>
    <path id="Path_156" data-name="Path 156" d="M692.01,456.745a1.285,1.285,0,1,1-1.285-1.285A1.285,1.285,0,0,1,692.01,456.745Z" transform="translate(-689.44 -439.929)" fill="#101011"/>
    <path id="Path_157" data-name="Path 157" d="M697.9,456.745a1.285,1.285,0,1,1-1.285-1.285A1.285,1.285,0,0,1,697.9,456.745Z" transform="translate(-687.104 -439.929)" fill="#101011"/>
    <path id="Path_158" data-name="Path 158" d="M703.79,456.745a1.285,1.285,0,1,1-1.285-1.285A1.285,1.285,0,0,1,703.79,456.745Z" transform="translate(-684.767 -439.929)" fill="#101011"/>
    <path id="Path_159" data-name="Path 159" d="M709.73,456.745a1.285,1.285,0,1,1-1.285-1.285A1.285,1.285,0,0,1,709.73,456.745Z" transform="translate(-682.411 -439.929)" fill="#101011"/>
    <path id="Path_160" data-name="Path 160" d="M715.57,456.745a1.285,1.285,0,1,1-1.285-1.285,1.285,1.285,0,0,1,1.285,1.285Z" transform="translate(-680.095 -439.929)" fill="#101011"/>
    <path id="Path_161" data-name="Path 161" d="M721.46,456.745a1.285,1.285,0,1,1-1.285-1.285A1.285,1.285,0,0,1,721.46,456.745Z" transform="translate(-677.758 -439.929)" fill="#101011"/>
    <path id="Path_162" data-name="Path 162" d="M727.35,456.745a1.285,1.285,0,1,1-1.285-1.285A1.285,1.285,0,0,1,727.35,456.745Z" transform="translate(-675.422 -439.929)" fill="#101011"/>
    <path id="Path_163" data-name="Path 163" d="M733.24,456.745a1.285,1.285,0,1,1-1.285-1.285A1.285,1.285,0,0,1,733.24,456.745Z" transform="translate(-673.086 -439.929)" fill="#101011"/>
    <path id="Path_164" data-name="Path 164" d="M692.01,451.185a1.285,1.285,0,1,1-1.285-1.285A1.285,1.285,0,0,1,692.01,451.185Z" transform="translate(-689.44 -442.135)" fill="#101011"/>
    <path id="Path_165" data-name="Path 165" d="M697.9,451.185a1.285,1.285,0,1,1-1.285-1.285A1.285,1.285,0,0,1,697.9,451.185Z" transform="translate(-687.104 -442.135)" fill="#101011"/>
    <path id="Path_166" data-name="Path 166" d="M703.79,451.185A1.285,1.285,0,1,1,702.5,449.9,1.285,1.285,0,0,1,703.79,451.185Z" transform="translate(-684.767 -442.135)" fill="#101011"/>
    <path id="Path_167" data-name="Path 167" d="M709.73,451.185a1.285,1.285,0,1,1-1.285-1.285A1.285,1.285,0,0,1,709.73,451.185Z" transform="translate(-682.411 -442.135)" fill="#101011"/>
    <path id="Path_168" data-name="Path 168" d="M715.57,451.185a1.285,1.285,0,1,1-1.285-1.285,1.285,1.285,0,0,1,1.285,1.285Z" transform="translate(-680.095 -442.135)" fill="#101011"/>
    <path id="Path_169" data-name="Path 169" d="M721.46,451.185a1.285,1.285,0,1,1-1.285-1.285A1.285,1.285,0,0,1,721.46,451.185Z" transform="translate(-677.758 -442.135)" fill="#101011"/>
    <path id="Path_170" data-name="Path 170" d="M727.35,451.185a1.285,1.285,0,1,1-1.285-1.285A1.285,1.285,0,0,1,727.35,451.185Z" transform="translate(-675.422 -442.135)" fill="#101011"/>
    <path id="Path_171" data-name="Path 171" d="M733.24,451.185a1.285,1.285,0,1,1-1.285-1.285A1.285,1.285,0,0,1,733.24,451.185Z" transform="translate(-673.086 -442.135)" fill="#101011"/>
    <path id="Path_172" data-name="Path 172" d="M692.01,445.625a1.285,1.285,0,1,1-1.285-1.285A1.285,1.285,0,0,1,692.01,445.625Z" transform="translate(-689.44 -444.34)" fill="#101011"/>
    <path id="Path_173" data-name="Path 173" d="M697.9,445.625a1.285,1.285,0,1,1-1.285-1.285A1.285,1.285,0,0,1,697.9,445.625Z" transform="translate(-687.104 -444.34)" fill="#101011"/>
    <path id="Path_174" data-name="Path 174" d="M703.79,445.625a1.285,1.285,0,1,1-1.285-1.285A1.285,1.285,0,0,1,703.79,445.625Z" transform="translate(-684.767 -444.34)" fill="#101011"/>
    <path id="Path_175" data-name="Path 175" d="M709.73,445.625a1.285,1.285,0,1,1-1.285-1.285A1.285,1.285,0,0,1,709.73,445.625Z" transform="translate(-682.411 -444.34)" fill="#101011"/>
    <path id="Path_176" data-name="Path 176" d="M715.57,445.625a1.285,1.285,0,1,1-1.285-1.285,1.285,1.285,0,0,1,1.285,1.285Z" transform="translate(-680.095 -444.34)" fill="#101011"/>
    <path id="Path_177" data-name="Path 177" d="M721.46,445.625a1.285,1.285,0,1,1-1.285-1.285A1.285,1.285,0,0,1,721.46,445.625Z" transform="translate(-677.758 -444.34)" fill="#101011"/>
    <path id="Path_178" data-name="Path 178" d="M727.35,445.625a1.285,1.285,0,1,1-1.285-1.285A1.285,1.285,0,0,1,727.35,445.625Z" transform="translate(-675.422 -444.34)" fill="#101011"/>
    <path id="Path_179" data-name="Path 179" d="M733.24,445.625a1.285,1.285,0,1,1-1.285-1.285A1.285,1.285,0,0,1,733.24,445.625Z" transform="translate(-673.086 -444.34)" fill="#101011"/>
    <rect id="Rectangle_172" data-name="Rectangle 172" width="57.123" height="57.123" rx="1.63" transform="translate(28.813 27.123)" fill="none" stroke="#5b01ae" stroke-miterlimit="10" stroke-width="0.89"/>
  </g>
</svg>
