<svg id="Page-1" xmlns="http://www.w3.org/2000/svg" width="48" height="48" viewBox="0 0 48 48">
  <g id="Social-Icons---Isolated">
    <path id="Wordpress" d="M164,1647a23.947,23.947,0,0,1,2.078-9.77l11.448,31.37A24,24,0,0,1,164,1647Zm40.2-1.21c0,2.05-.791,4.44-1.826,7.76l-2.4,8-8.673-25.8c1.445-.08,2.747-.23,2.747-.23a.993.993,0,0,0-.153-1.98s-3.887.31-6.4.31c-2.359,0-6.322-.31-6.322-.31a.993.993,0,0,0-.153,1.98s1.226.15,2.519.23l3.738,10.24-5.253,15.75-8.739-25.99c1.446-.08,2.746-.23,2.746-.23a.993.993,0,0,0-.153-1.98s-3.886.31-6.4.31c-.45,0-.981-.02-1.545-.03a23.993,23.993,0,0,1,36.259-4.52c-.1-.01-.2-.02-.31-.02a4.153,4.153,0,0,0-4.031,4.26c0,1.98,1.141,3.65,2.358,5.63A12.647,12.647,0,0,1,204.2,1645.79Zm4.858-10.3a23.993,23.993,0,0,1-8.994,32.25l7.33-21.19a22.631,22.631,0,0,0,1.826-8.6A18.313,18.313,0,0,0,209.06,1635.49Zm-20.639,13.61,7.377,20.21a2.047,2.047,0,0,0,.171.33,23.991,23.991,0,0,1-14.75.38Z" transform="translate(-164 -1623)" fill="#00759d" fill-rule="evenodd"/>
  </g>
</svg>
