<svg xmlns="http://www.w3.org/2000/svg" width="48.867" height="45.906" viewBox="0 0 48.867 45.906">
  <g id="_15355263541582988846" data-name="15355263541582988846" transform="translate(-2.318 -6.055)">
    <path id="Path_10" data-name="Path 10" d="M36.02,7.588a5.024,5.024,0,0,0-3.684-1.532H7.535A5.026,5.026,0,0,0,3.851,7.588a5.026,5.026,0,0,0-1.532,3.685V46.745a5.023,5.023,0,0,0,1.532,3.683,5.023,5.023,0,0,0,3.684,1.532H30.4a4.948,4.948,0,0,1-1.423-3.509V44.639H7.535a2.081,2.081,0,0,1-2.067-2.068v-31.3A2.08,2.08,0,0,1,7.535,9.205h24.8A2.081,2.081,0,0,1,34.4,11.273v8.255h3.149V11.273A5.03,5.03,0,0,0,36.02,7.588ZM18.468,46.962a2.047,2.047,0,1,1-.619,1.467,2.009,2.009,0,0,1,.619-1.467Z" fill="#2d3e50"/>
    <path id="Path_11" data-name="Path 11" d="M93.151,45a3.38,3.38,0,0,0-2.479-1.031H77.03a3.52,3.52,0,0,0-3.51,3.51V71.347a3.52,3.52,0,0,0,3.51,3.51H90.672a3.52,3.52,0,0,0,3.51-3.51V47.479A3.383,3.383,0,0,0,93.151,45ZM84.838,73.467a1.377,1.377,0,1,1,.417-.987,1.349,1.349,0,0,1-.417.987Zm7.225-4.928a1.4,1.4,0,0,1-1.391,1.391H77.03a1.4,1.4,0,0,1-1.391-1.391V47.479a1.4,1.4,0,0,1,1.391-1.391H90.672a1.4,1.4,0,0,1,1.391,1.391Z" transform="translate(-42.998 -22.895)" fill="#2e79bd"/>
  </g>
</svg>
