<?xml version="1.0" standalone="no"?>
<!DOCTYPE svg PUBLIC "-//W3C//DTD SVG 20010904//EN"
 "http://www.w3.org/TR/2001/REC-SVG-20010904/DTD/svg10.dtd">
<svg version="1.0" xmlns="http://www.w3.org/2000/svg"
 width="280.000000pt" height="99.000000pt" viewBox="0 0 280.000000 99.000000"
 preserveAspectRatio="xMidYMid meet">

<g transform="translate(0.000000,99.000000) scale(0.100000,-0.100000)"
fill="#000000" stroke="none">
<path d="M557 746 c-59 -22 -105 -57 -138 -105 -92 -139 -46 -314 105 -394 58
-31 174 -31 232 0 53 28 99 74 127 127 31 58 31 174 0 232 -28 53 -75 99 -126
126 -52 26 -149 33 -200 14z m191 -142 c28 -20 29 -63 1 -98 l-21 -27 39 -47
c22 -26 51 -53 64 -59 23 -12 22 -13 -15 -13 -32 0 -44 6 -77 42 -22 24 -39
46 -39 50 0 5 -9 8 -20 8 -17 0 -20 -7 -20 -40 0 -27 6 -42 18 -49 13 -8 2
-10 -43 -10 -33 1 -52 3 -42 6 13 3 17 15 17 49 0 58 -16 57 -69 -6 -38 -46
-46 -50 -84 -50 l-42 1 30 13 c26 12 64 52 88 93 4 6 -2 27 -13 45 -26 42 -25
62 2 88 19 17 35 20 113 20 66 0 97 -4 113 -16z"/>
<path d="M565 586 c-36 -26 -17 -106 26 -106 17 0 19 8 19 60 0 64 -9 73 -45
46z"/>
<path d="M660 540 c0 -56 2 -60 23 -60 32 0 47 18 47 55 0 34 -26 65 -53 65
-14 0 -17 -11 -17 -60z"/>
<path d="M1040 486 c0 -119 1 -126 20 -126 16 0 20 7 20 35 0 34 1 35 38 35
31 0 40 -6 60 -35 16 -25 30 -35 48 -35 l25 0 -25 33 c-31 41 -32 49 -6 72 26
24 27 85 1 116 -17 21 -30 24 -100 27 l-81 4 0 -126z m155 50 c8 -24 6 -31
-14 -47 -14 -11 -39 -19 -62 -19 l-39 0 0 51 0 50 52 -3 c48 -3 54 -6 63 -32z"/>
<path d="M1300 486 c0 -119 1 -126 20 -126 16 0 20 7 20 35 0 34 1 35 38 35
31 0 40 -6 60 -35 16 -25 30 -35 48 -35 l25 0 -25 33 c-31 41 -32 49 -6 72 26
24 27 85 1 116 -17 21 -30 24 -100 27 l-81 4 0 -126z m155 50 c8 -24 6 -31
-14 -47 -14 -11 -39 -19 -62 -19 l-39 0 0 51 0 50 52 -3 c48 -3 54 -6 63 -32z"/>
<path d="M1570 485 l0 -125 65 0 c112 0 175 44 175 122 0 89 -52 128 -169 128
l-71 0 0 -125z m170 60 c34 -37 33 -90 -4 -121 -21 -18 -39 -24 -77 -24 l-49
0 0 85 0 85 53 0 c44 0 58 -4 77 -25z"/>
<path d="M1875 525 c-19 -18 -25 -35 -25 -67 1 -64 36 -98 102 -98 42 0 78 23
62 40 -8 8 -19 8 -38 0 -30 -11 -76 4 -84 28 -3 9 16 12 72 12 70 0 76 2 76
21 0 53 -39 88 -98 89 -32 0 -49 -6 -67 -25z m107 -22 c29 -26 21 -33 -37 -33
-59 0 -64 4 -38 32 20 22 51 23 75 1z"/>
<path d="M2064 518 c63 -149 69 -158 91 -158 18 0 29 16 62 95 l41 95 -24 0
c-13 0 -24 -6 -25 -12 0 -7 -13 -40 -28 -72 l-27 -59 -28 72 c-25 60 -33 71
-53 71 -22 0 -23 -1 -9 -32z"/>
<path d="M2286 537 c-41 -30 -13 -97 40 -97 33 0 54 -10 54 -26 0 -19 -41 -27
-75 -14 -22 8 -30 8 -36 -2 -13 -20 19 -38 68 -38 33 0 50 6 68 25 14 13 25
29 25 35 0 20 -40 50 -67 50 -38 0 -57 14 -49 35 5 15 14 17 50 12 33 -5 45
-3 49 7 3 8 -1 17 -9 20 -28 11 -100 6 -118 -7z"/>
</g>
</svg>
