<svg id="_3602126621553750226" data-name="3602126621553750226" xmlns="http://www.w3.org/2000/svg" width="68.46" height="40.751" viewBox="0 0 68.46 40.751">
  <path id="Path_8" data-name="Path 8" d="M6.354,0H62.079A6.379,6.379,0,0,1,68.46,6.381V27.653a6.379,6.379,0,0,1-6.382,6.382H42.1l2.743,6.717L32.775,34.034H6.382A6.379,6.379,0,0,1,0,27.653V6.381A6.355,6.355,0,0,1,6.354,0Z" fill="#9b5c8f"/>
  <path id="Path_9" data-name="Path 9" d="M13.266,16.159a2.24,2.24,0,0,1,1.753-.863,2.033,2.033,0,0,1,2.421,2q1.294,8.725,2.811,14.777l6.095-11.6a2.642,2.642,0,0,1,2.087-1.67c1.225-.083,1.976.7,2.282,2.338a51.986,51.986,0,0,0,2.644,9.518q1.085-10.6,3.674-15.306a2.138,2.138,0,0,1,1.837-1.225,2.418,2.418,0,0,1,1.753.557,2.18,2.18,0,0,1,.863,1.586,2.417,2.417,0,0,1-.278,1.336c-1.085,2-1.976,5.371-2.7,10.046a51.846,51.846,0,0,0-.779,10.6,3.305,3.305,0,0,1-.334,1.837,1.794,1.794,0,0,1-1.475,1,2.8,2.8,0,0,1-2.2-1.03Q29.838,36.1,27.57,28.209q-2.713,5.343-4.007,8.015c-1.642,3.145-3.033,4.759-4.2,4.842-.751.056-1.391-.585-1.948-1.92q-2.129-5.468-4.592-21.122A2.371,2.371,0,0,1,13.266,16.159Zm59.805,4.369A6.409,6.409,0,0,0,68.619,17.3a7.307,7.307,0,0,0-1.5-.167c-2.672,0-4.842,1.391-6.54,4.174a14.745,14.745,0,0,0-2.171,7.848,10.775,10.775,0,0,0,1.336,5.51,6.409,6.409,0,0,0,4.453,3.228,7.293,7.293,0,0,0,1.5.167c2.7,0,4.87-1.392,6.54-4.174a14.913,14.913,0,0,0,2.171-7.876A10.27,10.27,0,0,0,73.071,20.528Zm-3.506,7.709a7.363,7.363,0,0,1-2.115,4.119,2.675,2.675,0,0,1-2.254.891c-.668-.139-1.225-.724-1.642-1.809a7.062,7.062,0,0,1-.5-2.532,9.684,9.684,0,0,1,.195-2.032,9,9,0,0,1,1.475-3.312c.919-1.364,1.893-1.92,2.894-1.725.668.139,1.225.724,1.642,1.809a7.062,7.062,0,0,1,.5,2.532A9.77,9.77,0,0,1,69.565,28.237ZM55.65,20.528A6.466,6.466,0,0,0,51.2,17.3a7.3,7.3,0,0,0-1.5-.167c-2.672,0-4.842,1.391-6.54,4.174a14.747,14.747,0,0,0-2.171,7.848,10.775,10.775,0,0,0,1.336,5.51,6.409,6.409,0,0,0,4.453,3.228,7.29,7.29,0,0,0,1.5.167c2.7,0,4.87-1.392,6.54-4.174a14.911,14.911,0,0,0,2.171-7.876A10.53,10.53,0,0,0,55.65,20.528Zm-3.534,7.709A7.363,7.363,0,0,1,50,32.356a2.675,2.675,0,0,1-2.254.891c-.668-.139-1.225-.724-1.642-1.809a7.062,7.062,0,0,1-.5-2.532,9.684,9.684,0,0,1,.195-2.032,9,9,0,0,1,1.475-3.312c.918-1.364,1.892-1.92,2.894-1.725.668.139,1.225.724,1.642,1.809a7.062,7.062,0,0,1,.5,2.532,8.213,8.213,0,0,1-.195,2.059Z" transform="translate(-9.367 -10.342)" fill="#fff"/>
</svg>
