<svg xmlns="http://www.w3.org/2000/svg" width="48.098" height="46.177" viewBox="0 0 48.098 46.177">
  <g id="_18794660361595453758" data-name="18794660361595453758" transform="translate(-2 -2.5)">
    <path id="Path_7" data-name="Path 7" d="M48.522,20.4c-4.034.768-7.683,0-9.028-2.5s-.384-5.954,2.5-9.028A23.387,23.387,0,0,0,32.772,3.5c-1.345,4.034-3.842,6.723-6.723,6.723S20.671,7.534,19.326,3.5A22.66,22.66,0,0,0,10.3,8.878c2.881,3.073,3.842,6.723,2.5,9.028-1.345,2.5-4.994,3.265-9.028,2.5A15.425,15.425,0,0,0,3,25.589a22.585,22.585,0,0,0,.576,5.186c4.034-.768,7.683,0,9.028,2.5s.384,5.954-2.5,9.028a23.387,23.387,0,0,0,9.22,5.378c1.345-4.034,3.842-6.723,6.723-6.723s5.378,2.689,6.723,6.723a22.471,22.471,0,0,0,9.22-5.378c-2.881-3.073-3.842-6.723-2.5-9.028,1.345-2.5,4.994-3.265,9.028-2.5a23.841,23.841,0,0,0,.576-5.186A22.585,22.585,0,0,0,48.522,20.4Z" fill="#8a8aff" stroke="#8a8aff" stroke-linecap="round" stroke-linejoin="round" stroke-miterlimit="10" stroke-width="2"/>
    <circle id="Ellipse_13" data-name="Ellipse 13" cx="5.762" cy="5.762" r="5.762" transform="translate(20.287 19.826)" fill="#e3faff" stroke="#e3faff" stroke-linecap="round" stroke-linejoin="round" stroke-miterlimit="10" stroke-width="2"/>
  </g>
</svg>
