<svg id="Layer_x0020_1" xmlns="http://www.w3.org/2000/svg" width="54.253" height="54.253" viewBox="0 0 54.253 54.253">
  <circle id="Ellipse_14" data-name="Ellipse 14" cx="27.127" cy="27.127" r="27.127" transform="translate(0 0)" fill="#f48b76"/>
  <g id="_319089144" transform="translate(9.396 10.236)">
    <path id="_319090392" d="M23.611,8.071a4.855,4.855,0,1,1-3.5,1.261A4.84,4.84,0,0,1,23.611,8.071ZM7.327,16.992l0,.006q-.545,1.027-1.041,2.142l0,0q.5-1.124,1.046-2.153Zm3.9-5.682q-.886,1.008-1.716,2.157l.008-.011q.827-1.15,1.708-2.148h0Zm.025-.028-.024.029h0l.025-.028Zm-5,7.935.031-.071A.539.539,0,0,1,6.249,19.216Zm2.864,6.7,2.566,2.817,1.284,1.409q1.331-.34,2.559-.751a.536.536,0,0,1,.074-.025q1.19-.4,2.288-.861,1.143-.479,2.193-1.019.747-.383,1.445-.791l.005,0q1.235-.723,2.33-1.521h0l.032-.021a27.432,27.432,0,0,0,8.577-10.34,33.7,33.7,0,0,0,3.257-13.13A33.7,33.7,0,0,0,22.345,3.7a27.433,27.433,0,0,0-11.093,7.577.541.541,0,0,0-.607-.839l-.134.042a17.221,17.221,0,0,0-4.669,2.272A12.114,12.114,0,0,0,1.4,18.289h0a.541.541,0,0,0,.466.736l3.129.386L5.7,19.5h0a.541.541,0,0,0,.544-.283q-.522,1.185-.985,2.478L6.547,23.1l2.566,2.817ZM7.656,14.279a33.313,33.313,0,0,0-2.214,4.1h0l-2.764-.341a11.2,11.2,0,0,1,3.783-4.4,15.266,15.266,0,0,1,2.679-1.491l.008,0q-.774,1.011-1.49,2.133Z" transform="translate(-1.351 -0.555)" fill="#e6ee9c" fill-rule="evenodd"/>
    <path id="_319090584" d="M25.405,1.635c-.152,3.582-1.955,20.855-22.465,27.8h0l.642.7q1.331-.34,2.559-.751a.533.533,0,0,1,.074-.025q1.19-.4,2.288-.861,1.143-.479,2.193-1.019.747-.383,1.445-.791l.005,0q1.235-.723,2.33-1.521h0l.032-.021a27.433,27.433,0,0,0,8.577-10.34A33.7,33.7,0,0,0,26.341,1.675c-.26-.016-.574-.031-.935-.04Z" transform="translate(8.03 -0.547)" fill="#adb277" fill-rule="evenodd"/>
    <path id="_319090200" d="M33.371,2.606a33.7,33.7,0,0,0-13.377,2.02C13.61,7.016,6.679,12.075,2.913,22.616l3.85,4.227,3.85,4.227c10.846-2.769,16.528-9.2,19.5-15.333a33.7,33.7,0,0,0,3.257-13.13ZM19.618,3.615a34.635,34.635,0,0,1,14.3-2.05h0a.541.541,0,0,1,.537.545h0a34.611,34.611,0,0,1-3.373,14.1c-3.112,6.422-9.075,13.154-20.485,15.98a.541.541,0,0,1-.571-.149h0L5.963,27.572,1.9,23.116a.541.541,0,0,1-.12-.552h0C5.659,11.439,12.926,6.119,19.618,3.615Z" transform="translate(0.999 -1.478)" fill="#413b32"/>
    <path id="_319090416" d="M12.282,4.148A4.855,4.855,0,1,1,8.919,2.568,4.84,4.84,0,0,1,12.282,4.148Zm.18,3.445a3.773,3.773,0,1,0-1.228,2.614A3.761,3.761,0,0,0,12.461,7.593Z" transform="translate(13.341 4.948)" fill="#413b32"/>
    <path id="_319089792" d="M2.677,10.524l2.765.341a33.313,33.313,0,0,1,2.214-4.1q.715-1.123,1.49-2.133A15.27,15.27,0,0,0,6.46,6.128a11.2,11.2,0,0,0-3.783,4.4ZM5.7,11.987l-3.844-.474a.541.541,0,0,1-.466-.736h0A12.114,12.114,0,0,1,5.841,5.245a17.268,17.268,0,0,1,4.8-2.314.541.541,0,0,1,.583.869l0,0a28.742,28.742,0,0,0-2.657,3.55,32.439,32.439,0,0,0-2.286,4.281.541.541,0,0,1-.577.359h0Z" transform="translate(-1.351 6.956)" fill="#413b32"/>
    <path id="_319089696" d="M3.47,13.729,3.356,9.857h0a.541.541,0,0,1,.411-.541A32.431,32.431,0,0,0,8.242,7.438a28.739,28.739,0,0,0,3.782-2.315l0,0a.541.541,0,0,1,.811.661,17.267,17.267,0,0,1-2.751,4.567A12.114,12.114,0,0,1,4.159,14.26v0a.541.541,0,0,1-.689-.533Zm.978-3.506.082,2.785A11.2,11.2,0,0,0,9.259,9.651,15.27,15.27,0,0,0,11,7.115Q9.918,7.791,8.734,8.4a33.307,33.307,0,0,1-4.287,1.823Z" transform="translate(10.483 19.499)" fill="#413b32"/>
    <path id="_319089552" d="M2.92,6.638l5.133,5.635a.541.541,0,0,0,.751.043l.015-.013a.541.541,0,0,0,.029-.753h0L3.715,5.914a.541.541,0,0,0-.759-.035h0l0,0a.536.536,0,0,0-.171.37h0a.537.537,0,0,0,.14.387ZM7.252,13,2.12,7.366A1.614,1.614,0,0,1,1.7,6.2h0a1.615,1.615,0,0,1,.513-1.11l.026-.024a1.623,1.623,0,0,1,2.275.118L9.647,10.82h0a1.622,1.622,0,0,1-.1,2.283l-.006.005h0A1.623,1.623,0,0,1,7.252,13Z" transform="translate(0.681 17.363)" fill="#413b32"/>
    <path id="_319089576" d="M8.06,11.885a5.724,5.724,0,0,1-6.04.579l.23-.489-.232.489a.54.54,0,0,1-.289-.341A5.719,5.719,0,0,1,2.913,6.168h0l0,0h0l.027-.025a4.2,4.2,0,0,1,1.067-.756,3.5,3.5,0,0,1,1.24-.347v0a.541.541,0,0,1,.539.314c.007.012.014.023.021.033a.589.589,0,0,0,.044.053L9.144,9.051c.013.015.026.027.037.037s.031.027.04.033h0a.541.541,0,0,1,.2.577,3.508,3.508,0,0,1-.454,1.15,4.223,4.223,0,0,1-.877,1.007h0l-.035.027Zm-5.374-.306a4.6,4.6,0,0,0,4.684-.524l.025-.022h0a3.139,3.139,0,0,0,.653-.747A2.49,2.49,0,0,0,8.3,9.734L5.052,6.165l-.007-.008a2.485,2.485,0,0,0-.566.2,3.118,3.118,0,0,0-.787.562l-.025.025h0a4.591,4.591,0,0,0-.98,4.637Z" transform="translate(-1.357 19.597)" fill="#413b32"/>
    <path id="_319089408" d="M4.312,9.38a32.19,32.19,0,0,1,3.7-6.228A15.266,15.266,0,0,0,5.331,4.642a11.2,11.2,0,0,0-3.783,4.4l2.764.341Z" transform="translate(-0.222 8.442)" fill="#e0e0e0" fill-rule="evenodd"/>
    <path id="_319090128" d="M10.058,5.322a32.189,32.189,0,0,1-6.545,3.1l.082,2.784A11.2,11.2,0,0,0,8.324,7.85,15.266,15.266,0,0,0,10.058,5.322Z" transform="translate(11.419 21.3)" fill="#e0e0e0" fill-rule="evenodd"/>
    <path id="_319090032" d="M9.988,5.322q-.717.448-1.483.869L3.524,11.172v.036A11.2,11.2,0,0,0,8.255,7.85,15.269,15.269,0,0,0,9.988,5.322Z" transform="translate(11.488 21.3)" fill="#a9a9a9" fill-rule="evenodd"/>
    <path id="_319088904" d="M5.358,7.805,2.792,4.988a.541.541,0,0,0-.759-.035l0,0a.536.536,0,0,0-.171.37h0A.537.537,0,0,0,2,5.712l.732.8.008.009L7.13,11.346a.541.541,0,0,0,.751.043l.015-.013a.541.541,0,0,0,.029-.753L5.358,7.805Z" transform="translate(1.604 18.289)" fill="#e0e0e0" fill-rule="evenodd"/>
    <path id="_319089240" d="M2.452,6.226,3.6,7.485a.541.541,0,0,0,.751.043l.015-.013a.541.541,0,0,0,.029-.753l-1.181-1.3Z" transform="translate(5.134 22.15)" fill="#a9a9a9" fill-rule="evenodd"/>
    <path id="_319088664" d="M6.322,5.938a4.223,4.223,0,0,1-.877,1.007h0l-.035.027A5.74,5.74,0,0,1,1.546,8.143l.016.05a4.6,4.6,0,0,0,4.684-.524l.025-.022h0A3.14,3.14,0,0,0,6.926,6.9a2.489,2.489,0,0,0,.253-.551L6.5,5.606a3.642,3.642,0,0,1-.181.332Z" transform="translate(-0.233 22.984)" fill="#c0a964" fill-rule="evenodd"/>
    <path id="_319089168" d="M5.645,9.371a4.223,4.223,0,0,0,.877-1.007A3.641,3.641,0,0,0,6.7,8.032L4.127,5.2,4.12,5.2a2.487,2.487,0,0,0-.566.2,3.12,3.12,0,0,0-.787.562l-.025.025h0a4.588,4.588,0,0,0-1,4.587A5.74,5.74,0,0,0,5.611,9.4l.035-.027h0Z" transform="translate(-0.432 20.558)" fill="#ffe082" fill-rule="evenodd"/>
    <path id="_319088640" d="M9.341,3.442A4.855,4.855,0,0,1,4.3,8.067,3.775,3.775,0,0,0,9.342,3.026q.008.208,0,.416Z" transform="translate(16.088 7.695)" fill="#87b2b6" fill-rule="evenodd"/>
    <path id="_319089288" d="M9.581,8.627a4.84,4.84,0,0,0,1.581-3.363q.01-.208,0-.416A3.773,3.773,0,1,0,6.122,9.889a4.839,4.839,0,0,0,3.46-1.262Z" transform="translate(14.267 5.874)" fill="#b2ebf2" fill-rule="evenodd"/>
  </g>
</svg>
