<svg xmlns="http://www.w3.org/2000/svg" width="1920" height="310.17" viewBox="0 0 1920 310.17">
  <g id="Group_17" data-name="Group 17" transform="translate(0 -3211)">
    <rect id="Rectangle_176" data-name="Rectangle 176" width="1920" height="310" transform="translate(0 3211)" fill="#5b01ae"/>
    <g id="Group_16" data-name="Group 16" transform="translate(-6.456 3201.237)">
      <g id="_3" data-name="3">
        <path id="Path_208" data-name="Path 208" d="M411.042,306.89c-22,0-42.423-11.541-62.293-22.773-10.177-5.748-20.706-11.731-31.264-15.984-48.2-19.591-108.852-3.563-141.084,37.291L172.94,302.7c33.4-42.321,96.255-58.935,146.2-38.64,10.822,4.4,21.468,10.412,31.762,16.233,23.463,13.2,45.649,25.794,70.256,21.292,20.251-3.681,35.311-17.92,51.324-32.98,12.728-12.039,25.9-24.474,42.057-31.22,19.767-8.241,41.91-7.141,61.443-6.174,19.137.953,40.825,2.038,59.566-5.616,16.937-6.921,33.464-24.929,30.707-44.711l4.4-.6c3.094,22.187-14.459,41.646-33.39,49.374-19.65,8.036-41.866,6.936-61.457,5.954-19.063-.953-40.678-2.024-59.522,5.866-15.427,6.438-28.3,18.594-40.737,30.355-15.705,14.84-31.953,30.193-53.495,34.123a61.685,61.685,0,0,1-11.013.938Z" transform="translate(-159.678 -151.26)" fill="#ffb700"/>
        <path id="Path_209" data-name="Path 209" d="M450.259,309.684a44.222,44.222,0,0,1-10.71-1.385c-12.25-3-23.72-11.224-31.405-19.552-8.324-9.019-14.871-19.655-21.191-29.929-4.008-6.48-8.11-13.174-12.64-19.4C343.234,196.661,287.144,172.45,234.74,179.1l-.16-1.336a153.777,153.777,0,0,1,140.855,60.861c4.57,6.266,8.7,12.987,12.707,19.494,6.293,10.221,12.8,20.79,21.044,29.716,11.785,12.773,32.642,25.387,52.63,18.706,12.306-4.1,21.378-14.537,30.063-24.625,9.54-11.036,19.414-22.447,33.59-25.507,15.178-3.287,29.569,4.169,43.491,11.37,12.613,6.52,25.667,13.268,39.363,12.186,20.429-1.63,35.327-19.8,47.687-36.7L706.663,174l1.069.788-50.68,69.225c-12.533,17.143-27.658,35.568-48.649,37.238-14.11,1.109-27.3-5.719-40.084-12.319-14.337-7.429-27.885-14.43-42.6-11.264-13.736,2.98-23.035,13.709-32.869,25.079-8.845,10.221-18,20.8-30.651,25.026A37.479,37.479,0,0,1,450.259,309.684Z" transform="translate(-221.319 -154.054)" fill="#fff"/>
      </g>
      <g id="_1" data-name="1" transform="translate(1317.881 150.328)">
        <path id="Path_210" data-name="Path 210" d="M189.637,453.131l-4.807-.32c1.6-23.425,13.78-46.338,33.471-62.873s44.367-24.579,67.744-22.1c12.434,1.33,24.851,5.191,36.852,8.925,21.214,6.6,41.258,12.818,60.79,5.944s32.045-24.963,44.207-42.492c2.468-3.541,5.015-7.21,7.563-10.7,15.8-21.631,41.659-41.659,66.831-33.023,14.725,5.063,24.034,18.154,32.895,30.8s17.224,24.371,30.443,28.985c9.838,3.445,20.3,2.051,31.372.593a159.556,159.556,0,0,1,16.167-1.6c11.713-.337,24.194,4.39,31.068,11.745a20.83,20.83,0,0,1,5.96,16.567l-4.807-.465a16.022,16.022,0,0,0-4.679-12.818c-5.992-6.409-17-10.527-27.431-10.223a152.7,152.7,0,0,0-15.654,1.6c-11.216,1.474-22.672,3.012-33.648-.817-14.645-5.111-23.842-18.138-32.75-30.748s-17.272-24.515-30.475-29.065c-22.7-7.787-46.594,11.072-61.383,31.308-2.516,3.445-5.047,7.082-7.483,10.607-12.626,18.17-25.636,36.948-46.562,44.287s-42.8.657-63.818-5.9c-11.793-3.653-24.034-7.451-35.955-8.732-22.031-2.339-45.408,5.3-64.091,21.006S191.127,431.019,189.637,453.131Z" transform="translate(-48.704 -308.437)" fill="#ffb700"/>
        <path id="Path_211" data-name="Path 211" d="M96.361,459.808a51.48,51.48,0,0,1-14.741-2.115l.465-1.6c25.156,7.515,51.273-6.762,67.3-22.624,11.713-11.584,21.086-25.556,30.139-39.079,4.727-7.034,9.614-14.324,14.757-21.2,18.907-25.156,39.24-39.56,60.47-42.765,27.719-4.2,53.436,10.463,78.3,24.643s50.584,28.841,77.934,24.21c17.353-2.916,32.334-13.331,46.818-23.409,13.235-9.213,26.918-18.731,42.588-22.784,26.469-6.858,58.194,3.124,82.757,26.037,22.224,20.717,36.532,47.828,50.375,74.057l-1.41.753c-13.8-26.117-28.04-53.115-50.055-73.7C563.1,342.6,531.81,326.579,500.79,334.59c-15.4,3.974-28.953,13.411-42.076,22.544-14.629,10.174-29.754,20.7-47.475,23.682-27.9,4.695-53.868-10.094-78.976-24.4C307.62,342.377,282.128,327.861,255,331.963c-20.83,3.2-40.81,17.321-59.444,42.14-5.127,6.842-10,14.1-14.709,21.118-9.1,13.587-18.522,27.639-30.347,39.336C137.235,447.775,117.206,459.808,96.361,459.808Z" transform="translate(-78.62 -290.203)" fill="#fff"/>
      </g>
    </g>
    <g id="Ellipse_40" data-name="Ellipse 40" transform="translate(1243 3374)" fill="none" stroke="rgba(255,255,255,0.49)" stroke-width="2">
      <circle cx="7.5" cy="7.5" r="7.5" stroke="none"/>
      <circle cx="7.5" cy="7.5" r="6.5" fill="none"/>
    </g>
    <circle id="Ellipse_34" data-name="Ellipse 34" cx="5" cy="5" r="5" transform="translate(1143 3271)" fill="rgba(255,255,255,0.35)"/>
    <circle id="Ellipse_37" data-name="Ellipse 37" cx="5" cy="5" r="5" transform="translate(1656 3323)" fill="rgba(255,255,255,0.35)"/>
    <circle id="Ellipse_36" data-name="Ellipse 36" cx="5" cy="5" r="5" transform="translate(664 3224)" fill="rgba(255,255,255,0.35)"/>
    <circle id="Ellipse_35" data-name="Ellipse 35" cx="4" cy="4" r="4" transform="translate(844 3452)" fill="rgba(255,255,255,0.35)"/>
    <path id="Polygon_1" data-name="Polygon 1" d="M7,0l7,12H0Z" transform="translate(285.696 3408.165) rotate(60)" fill="rgba(255,255,255,0.39)"/>
    <path id="Polygon_2" data-name="Polygon 2" d="M7,0l7,12H0Z" transform="translate(516.895 3266.929) rotate(60)" fill="rgba(255,255,255,0.39)"/>
    <path id="Polygon_3" data-name="Polygon 3" d="M7,0l7,12H0Z" transform="translate(1365.872 3250.955) rotate(60)" fill="rgba(255,255,255,0.39)"/>
    <path id="Polygon_4" data-name="Polygon 4" d="M7,0l7,12H0Z" transform="translate(1053.752 3416.94) rotate(60)" fill="rgba(255,255,255,0.39)"/>
    <g id="Polygon_5" data-name="Polygon 5" transform="translate(1666.243 3257.488) rotate(160)" fill="none">
      <path d="M11.409,4.442a3,3,0,0,1,5.183,0l8.777,15.046A3,3,0,0,1,22.777,24H5.223a3,3,0,0,1-2.591-4.512Z" stroke="none"/>
      <path d="M 13.99999904632568 3.953907012939453 C 13.28068923950195 3.953907012939453 12.63486862182617 4.324848175048828 12.27243900299072 4.946157455444336 L 3.495548248291016 19.99225807189941 C 3.130289077758789 20.61841773986816 3.127779006958008 21.36751747131348 3.488819122314453 21.99611663818359 C 3.849868774414062 22.62471771240234 4.498199462890625 22.99999809265137 5.223108291625977 22.99999809265137 L 22.77688980102539 22.99999809265137 C 23.50178909301758 22.99999809265137 24.15011978149414 22.62471771240234 24.51116943359375 21.99612808227539 C 24.87221908569336 21.36752700805664 24.86970901489258 20.61841773986816 24.50444984436035 19.99225807189941 L 15.72755908966064 4.946157455444336 C 15.3651294708252 4.324848175048828 14.71930885314941 3.953907012939453 13.99999904632568 3.953907012939453 M 13.99999904632568 2.95390510559082 C 15.00625896453857 2.95390510559082 16.01251983642578 3.450033187866211 16.59133911132812 4.442287445068359 L 25.36822891235352 19.48838806152344 C 26.53486824035645 21.48835754394531 25.09225845336914 23.99999809265137 22.77688980102539 23.99999809265137 L 5.223108291625977 23.99999809265137 C 2.907739639282227 23.99999809265137 1.465118408203125 21.48835754394531 2.631769180297852 19.48838806152344 L 11.40865898132324 4.442287445068359 C 11.98747825622559 3.450033187866211 12.99373912811279 2.95390510559082 13.99999904632568 2.95390510559082 Z" stroke="none" fill="rgba(255,255,255,0.38)"/>
    </g>
    <g id="Polygon_6" data-name="Polygon 6" transform="translate(290.972 3232.831) rotate(60)" fill="none">
      <path d="M11.409,4.442a3,3,0,0,1,5.183,0l8.777,15.046A3,3,0,0,1,22.777,24H5.223a3,3,0,0,1-2.591-4.512Z" stroke="none"/>
      <path d="M 13.99999904632568 3.953907012939453 C 13.28068923950195 3.953907012939453 12.63486862182617 4.324848175048828 12.27243900299072 4.946157455444336 L 3.495548248291016 19.99225807189941 C 3.130289077758789 20.61841773986816 3.127779006958008 21.36751747131348 3.488819122314453 21.99611663818359 C 3.849868774414062 22.62471771240234 4.498199462890625 22.99999809265137 5.223108291625977 22.99999809265137 L 22.77688980102539 22.99999809265137 C 23.50178909301758 22.99999809265137 24.15011978149414 22.62471771240234 24.51116943359375 21.99612808227539 C 24.87221908569336 21.36752700805664 24.86970901489258 20.61841773986816 24.50444984436035 19.99225807189941 L 15.72755908966064 4.946157455444336 C 15.3651294708252 4.324848175048828 14.71930885314941 3.953907012939453 13.99999904632568 3.953907012939453 M 13.99999904632568 2.95390510559082 C 15.00625896453857 2.95390510559082 16.01251983642578 3.450033187866211 16.59133911132812 4.442287445068359 L 25.36822891235352 19.48838806152344 C 26.53486824035645 21.48835754394531 25.09225845336914 23.99999809265137 22.77688980102539 23.99999809265137 L 5.223108291625977 23.99999809265137 C 2.907739639282227 23.99999809265137 1.465118408203125 21.48835754394531 2.631769180297852 19.48838806152344 L 11.40865898132324 4.442287445068359 C 11.98747825622559 3.450033187866211 12.99373912811279 2.95390510559082 13.99999904632568 2.95390510559082 Z" stroke="none" fill="rgba(255,255,255,0.38)"/>
    </g>
    <g id="Ellipse_38" data-name="Ellipse 38" transform="translate(844 3255)" fill="none" stroke="rgba(255,255,255,0.49)" stroke-width="2">
      <circle cx="7.5" cy="7.5" r="7.5" stroke="none"/>
      <circle cx="7.5" cy="7.5" r="6.5" fill="none"/>
    </g>
    <g id="Ellipse_39" data-name="Ellipse 39" transform="translate(559 3420)" fill="none" stroke="rgba(255,255,255,0.49)" stroke-width="2">
      <circle cx="7.5" cy="7.5" r="7.5" stroke="none"/>
      <circle cx="7.5" cy="7.5" r="6.5" fill="none"/>
    </g>
  </g>
</svg>
